<mxfile host="Electron" modified="2023-12-06T07:23:32.267Z" agent="Mozilla/5.0 (Windows NT 10.0; Win64; x64) AppleWebKit/537.36 (KHTML, like Gecko) draw.io/22.0.2 Chrome/114.0.5735.289 Electron/25.8.4 Safari/537.36" etag="lrL4w7I0-sgeMy9RumMR" version="22.0.2" type="device">
  <diagram id="C5RBs43oDa-KdzZeNtuy" name="Page-1">
    <mxGraphModel dx="810" dy="473" grid="1" gridSize="10" guides="1" tooltips="1" connect="1" arrows="1" fold="1" page="1" pageScale="1" pageWidth="827" pageHeight="1169" math="0" shadow="0">
      <root>
        <mxCell id="WIyWlLk6GJQsqaUBKTNV-0" />
        <mxCell id="WIyWlLk6GJQsqaUBKTNV-1" parent="WIyWlLk6GJQsqaUBKTNV-0" />
        <mxCell id="WIyWlLk6GJQsqaUBKTNV-2" value="" style="rounded=0;html=1;jettySize=auto;orthogonalLoop=1;fontSize=11;endArrow=block;endFill=0;endSize=8;strokeWidth=1;shadow=0;labelBackgroundColor=none;edgeStyle=orthogonalEdgeStyle;" parent="WIyWlLk6GJQsqaUBKTNV-1" source="WIyWlLk6GJQsqaUBKTNV-3" target="WIyWlLk6GJQsqaUBKTNV-7" edge="1">
          <mxGeometry relative="1" as="geometry">
            <mxPoint x="220" y="169.9999999999999" as="targetPoint" />
          </mxGeometry>
        </mxCell>
        <mxCell id="WIyWlLk6GJQsqaUBKTNV-3" value="Plugin wird Aktiviert" style="rounded=1;whiteSpace=wrap;html=1;fontSize=12;glass=0;strokeWidth=1;shadow=0;" parent="WIyWlLk6GJQsqaUBKTNV-1" vertex="1">
          <mxGeometry x="160" y="80" width="120" height="40" as="geometry" />
        </mxCell>
        <mxCell id="WIyWlLk6GJQsqaUBKTNV-7" value="DemoDataService fürt die Function generate aus" style="rounded=1;whiteSpace=wrap;html=1;fontSize=12;glass=0;strokeWidth=1;shadow=0;" parent="WIyWlLk6GJQsqaUBKTNV-1" vertex="1">
          <mxGeometry x="135" y="170" width="170" height="60" as="geometry" />
        </mxCell>
        <mxCell id="X4Jthq2y3z24ILrmD-Gl-0" value="DemoDataProvider" style="rounded=1;whiteSpace=wrap;html=1;fontSize=12;glass=0;strokeWidth=1;shadow=0;" parent="WIyWlLk6GJQsqaUBKTNV-1" vertex="1">
          <mxGeometry x="135" y="280" width="170" height="60" as="geometry" />
        </mxCell>
        <mxCell id="X4Jthq2y3z24ILrmD-Gl-1" value="" style="rounded=0;html=1;jettySize=auto;orthogonalLoop=1;fontSize=11;endArrow=block;endFill=0;endSize=8;strokeWidth=1;shadow=0;labelBackgroundColor=none;edgeStyle=orthogonalEdgeStyle;" parent="WIyWlLk6GJQsqaUBKTNV-1" source="WIyWlLk6GJQsqaUBKTNV-7" target="X4Jthq2y3z24ILrmD-Gl-0" edge="1">
          <mxGeometry relative="1" as="geometry">
            <mxPoint x="230" y="130" as="sourcePoint" />
            <mxPoint x="230" y="180" as="targetPoint" />
          </mxGeometry>
        </mxCell>
        <mxCell id="X4Jthq2y3z24ILrmD-Gl-2" value="Alle 7 xxProvider classen werden ausgeführt" style="rounded=1;whiteSpace=wrap;html=1;fontSize=12;glass=0;strokeWidth=1;shadow=0;" parent="WIyWlLk6GJQsqaUBKTNV-1" vertex="1">
          <mxGeometry x="135" y="400" width="170" height="60" as="geometry" />
        </mxCell>
        <mxCell id="X4Jthq2y3z24ILrmD-Gl-3" value="" style="rounded=0;html=1;jettySize=auto;orthogonalLoop=1;fontSize=11;endArrow=block;endFill=0;endSize=8;strokeWidth=1;shadow=0;labelBackgroundColor=none;edgeStyle=orthogonalEdgeStyle;" parent="WIyWlLk6GJQsqaUBKTNV-1" source="X4Jthq2y3z24ILrmD-Gl-0" target="X4Jthq2y3z24ILrmD-Gl-2" edge="1">
          <mxGeometry relative="1" as="geometry">
            <mxPoint x="230" y="240" as="sourcePoint" />
            <mxPoint x="230" y="290" as="targetPoint" />
          </mxGeometry>
        </mxCell>
        <mxCell id="X4Jthq2y3z24ILrmD-Gl-4" value="Per Sync API werden die Daten gespeichert" style="rounded=1;whiteSpace=wrap;html=1;fontSize=12;glass=0;strokeWidth=1;shadow=0;" parent="WIyWlLk6GJQsqaUBKTNV-1" vertex="1">
          <mxGeometry x="135" y="550" width="170" height="60" as="geometry" />
        </mxCell>
        <mxCell id="X4Jthq2y3z24ILrmD-Gl-5" value="" style="rounded=0;html=1;jettySize=auto;orthogonalLoop=1;fontSize=11;endArrow=block;endFill=0;endSize=8;strokeWidth=1;shadow=0;labelBackgroundColor=none;edgeStyle=orthogonalEdgeStyle;" parent="WIyWlLk6GJQsqaUBKTNV-1" source="X4Jthq2y3z24ILrmD-Gl-2" target="X4Jthq2y3z24ILrmD-Gl-4" edge="1">
          <mxGeometry relative="1" as="geometry">
            <mxPoint x="230" y="350" as="sourcePoint" />
            <mxPoint x="230" y="410" as="targetPoint" />
          </mxGeometry>
        </mxCell>
        <mxCell id="X4Jthq2y3z24ILrmD-Gl-6" value="respons status&amp;nbsp; &amp;gt;= 400" style="rhombus;whiteSpace=wrap;html=1;" parent="WIyWlLk6GJQsqaUBKTNV-1" vertex="1">
          <mxGeometry x="130" y="670" width="180" height="80" as="geometry" />
        </mxCell>
        <mxCell id="X4Jthq2y3z24ILrmD-Gl-7" value="" style="rounded=0;html=1;jettySize=auto;orthogonalLoop=1;fontSize=11;endArrow=block;endFill=0;endSize=8;strokeWidth=1;shadow=0;labelBackgroundColor=none;edgeStyle=orthogonalEdgeStyle;" parent="WIyWlLk6GJQsqaUBKTNV-1" source="X4Jthq2y3z24ILrmD-Gl-4" target="X4Jthq2y3z24ILrmD-Gl-6" edge="1">
          <mxGeometry relative="1" as="geometry">
            <mxPoint x="370" y="630" as="sourcePoint" />
            <mxPoint x="370" y="720" as="targetPoint" />
          </mxGeometry>
        </mxCell>
        <mxCell id="X4Jthq2y3z24ILrmD-Gl-9" value="finalize Data" style="rounded=1;whiteSpace=wrap;html=1;" parent="WIyWlLk6GJQsqaUBKTNV-1" vertex="1">
          <mxGeometry x="160" y="810" width="120" height="60" as="geometry" />
        </mxCell>
        <mxCell id="X4Jthq2y3z24ILrmD-Gl-10" value="throw new RuntimeException" style="rounded=1;whiteSpace=wrap;html=1;" parent="WIyWlLk6GJQsqaUBKTNV-1" vertex="1">
          <mxGeometry x="390" y="680" width="120" height="60" as="geometry" />
        </mxCell>
        <mxCell id="X4Jthq2y3z24ILrmD-Gl-11" value="" style="rounded=0;html=1;jettySize=auto;orthogonalLoop=1;fontSize=11;endArrow=block;endFill=0;endSize=8;strokeWidth=1;shadow=0;labelBackgroundColor=none;edgeStyle=orthogonalEdgeStyle;" parent="WIyWlLk6GJQsqaUBKTNV-1" source="X4Jthq2y3z24ILrmD-Gl-6" target="X4Jthq2y3z24ILrmD-Gl-10" edge="1">
          <mxGeometry relative="1" as="geometry">
            <mxPoint x="230" y="430" as="sourcePoint" />
            <mxPoint x="230" y="520" as="targetPoint" />
            <Array as="points">
              <mxPoint x="280" y="710" />
              <mxPoint x="280" y="710" />
            </Array>
          </mxGeometry>
        </mxCell>
        <mxCell id="X4Jthq2y3z24ILrmD-Gl-12" value="JA" style="edgeLabel;html=1;align=center;verticalAlign=middle;resizable=0;points=[];" parent="X4Jthq2y3z24ILrmD-Gl-11" vertex="1" connectable="0">
          <mxGeometry x="-0.2336" relative="1" as="geometry">
            <mxPoint as="offset" />
          </mxGeometry>
        </mxCell>
        <mxCell id="X4Jthq2y3z24ILrmD-Gl-13" value="" style="rounded=0;html=1;jettySize=auto;orthogonalLoop=1;fontSize=11;endArrow=block;endFill=0;endSize=8;strokeWidth=1;shadow=0;labelBackgroundColor=none;edgeStyle=orthogonalEdgeStyle;" parent="WIyWlLk6GJQsqaUBKTNV-1" source="X4Jthq2y3z24ILrmD-Gl-6" target="X4Jthq2y3z24ILrmD-Gl-9" edge="1">
          <mxGeometry relative="1" as="geometry">
            <mxPoint x="230" y="580" as="sourcePoint" />
            <mxPoint x="230" y="680" as="targetPoint" />
          </mxGeometry>
        </mxCell>
        <mxCell id="X4Jthq2y3z24ILrmD-Gl-14" value="Nein" style="edgeLabel;html=1;align=center;verticalAlign=middle;resizable=0;points=[];" parent="X4Jthq2y3z24ILrmD-Gl-13" vertex="1" connectable="0">
          <mxGeometry x="-0.4575" y="-3" relative="1" as="geometry">
            <mxPoint as="offset" />
          </mxGeometry>
        </mxCell>
        <mxCell id="byB5rgSvXZrKTUViRjQ4-0" value="Erstellung der Daten" style="text;html=1;strokeColor=none;fillColor=none;align=center;verticalAlign=middle;whiteSpace=wrap;rounded=0;" vertex="1" parent="WIyWlLk6GJQsqaUBKTNV-1">
          <mxGeometry x="160" y="40" width="120" height="30" as="geometry" />
        </mxCell>
        <mxCell id="byB5rgSvXZrKTUViRjQ4-1" value="Löschen der Daten" style="text;html=1;strokeColor=none;fillColor=none;align=center;verticalAlign=middle;whiteSpace=wrap;rounded=0;" vertex="1" parent="WIyWlLk6GJQsqaUBKTNV-1">
          <mxGeometry x="560" y="40" width="120" height="30" as="geometry" />
        </mxCell>
      </root>
    </mxGraphModel>
  </diagram>
</mxfile>
